AsyncMono-Regular.ufo
<glyph name="quotesingle" format="1">
  <advance width="600"/>
  <unicode hex="0027"/>
  <outline>
    <contour>
      <point x="259" y="765" type="line"/>
      <point x="254" y="680"/>
      <point x="247" y="577"/>
      <point x="247" y="522" type="curve" smooth="yes"/>
      <point x="247" y="480"/>
      <point x="287" y="458"/>
      <point x="343" y="450" type="curve"/>
      <point x="357" y="450" type="line"/>
      <point x="353" y="487"/>
      <point x="352" y="521"/>
      <point x="352" y="558" type="curve" smooth="yes"/>
      <point x="352" y="608"/>
      <point x="360" y="661"/>
      <point x="360" y="701" type="curve" smooth="yes"/>
      <point x="360" y="731"/>
      <point x="315" y="759"/>
      <point x="274" y="765" type="curve"/>
    </contour>
  </outline>
</glyph>
<glyph name="parenleft" format="1">
  <advance width="600"/>
  <unicode hex="0028"/>
  <outline>
    <contour>
      <point x="421" y="759" type="line"/>
      <point x="294" y="621"/>
      <point x="194" y="473"/>
      <point x="194" y="282" type="curve" smooth="yes"/>
      <point x="194" y="125"/>
      <point x="246" y="17"/>
      <point x="350" y="-115" type="curve" smooth="yes"/>
      <point x="366" y="-136"/>
      <point x="389" y="-150"/>
      <point x="416" y="-150" type="curve" smooth="yes"/>
      <point x="435" y="-150"/>
      <point x="453" y="-146"/>
      <point x="469" y="-136" type="curve"/>
      <point x="469" y="-125" type="line"/>
      <point x="355" y="-2"/>
      <point x="295" y="109"/>
      <point x="295" y="255" type="curve" smooth="yes"/>
      <point x="295" y="407"/>
      <point x="349" y="512"/>
      <point x="459" y="619" type="curve" smooth="yes"/>
      <point x="476" y="635"/>
      <point x="483" y="648"/>
      <point x="483" y="674" type="curve" smooth="yes"/>
      <point x="483" y="707"/>
      <point x="463" y="744"/>
      <point x="437" y="759" type="curve"/>
    </contour>
  </outline>
</glyph>
<glyph name="comma" format="1">
  <advance width="600"/>
  <unicode hex="002C"/>
  <outline>
    <contour>
      <point x="289" y="123" type="line"/>
      <point x="280" y="42"/>
      <point x="222" y="-50"/>
      <point x="185" y="-103" type="curve" smooth="yes"/>
      <point x="177" y="-115"/>
      <point x="173" y="-125"/>
      <point x="173" y="-138" type="curve" smooth="yes"/>
      <point x="173" y="-167"/>
      <point x="191" y="-191"/>
      <point x="221" y="-204" type="curve"/>
      <point x="233" y="-204" type="line"/>
      <point x="260" y="-167"/>
      <point x="290" y="-130"/>
      <point x="320" y="-100" type="curve" smooth="yes"/>
      <point x="363" y="-59"/>
      <point x="389" y="-16"/>
      <point x="389" y="30" type="curve" smooth="yes"/>
      <point x="389" y="84"/>
      <point x="344" y="117"/>
      <point x="302" y="123" type="curve"/>
    </contour>
  </outline>
</glyph>
<glyph name="hyphen" format="1">
  <advance width="600"/>
  <unicode hex="002D"/>
  <outline>
    <contour>
      <point x="46" y="382" type="curve"/>
      <point x="46" y="372" type="line"/>
      <point x="51" y="346"/>
      <point x="80" y="287"/>
      <point x="102" y="287" type="curve" smooth="yes"/>
      <point x="156" y="287"/>
      <point x="230" y="288"/>
      <point x="293" y="288" type="curve" smooth="yes"/>
      <point x="330" y="288"/>
      <point x="498" y="286"/>
      <point x="556" y="286" type="curve"/>
      <point x="556" y="296" type="line"/>
      <point x="548" y="336"/>
      <point x="512" y="380"/>
      <point x="488" y="380" type="curve" smooth="yes"/>
      <point x="455" y="380"/>
      <point x="381" y="377"/>
      <point x="305" y="376" type="curve" smooth="yes"/>
      <point x="198" y="375"/>
      <point x="111" y="382"/>
    </contour>
  </outline>
</glyph>
<glyph name="period" format="1">
  <advance width="600"/>
  <unicode hex="002E"/>
  <outline>
    <contour>
      <point x="268" y="129" type="curve" smooth="yes"/>
      <point x="243" y="129"/>
      <point x="229" y="85"/>
      <point x="229" y="26" type="curve" smooth="yes"/>
      <point x="229" y="-2"/>
      <point x="258" y="-14"/>
      <point x="341" y="-14" type="curve" smooth="yes"/>
      <point x="361" y="-14"/>
      <point x="375" y="26"/>
      <point x="375" y="93" type="curve" smooth="yes"/>
      <point x="375" y="115"/>
      <point x="334" y="129"/>
    </contour>
  </outline>
</glyph>
<glyph name="slash" format="1">
  <advance width="600"/>
  <unicode hex="002F"/>
  <outline>
    <contour>
      <point x="444" y="759" type="line"/>
      <point x="344" y="491"/>
      <point x="190" y="205"/>
      <point x="108" y="-1" type="curve" smooth="yes"/>
      <point x="100" y="-20"/>
      <point x="94" y="-40"/>
      <point x="94" y="-57" type="curve" smooth="yes"/>
      <point x="94" y="-99"/>
      <point x="121" y="-131"/>
      <point x="155" y="-131" type="curve"/>
      <point x="168" y="-131" type="line"/>
      <point x="171" y="-92"/>
      <point x="186" y="-41"/>
      <point x="203" y="2" type="curve" smooth="yes"/>
      <point x="262" y="157"/>
      <point x="377" y="358"/>
      <point x="497" y="659" type="curve" smooth="yes"/>
      <point x="504" y="675"/>
      <point x="507" y="688"/>
      <point x="507" y="699" type="curve" smooth="yes"/>
      <point x="507" y="729"/>
      <point x="488" y="758"/>
      <point x="458" y="759" type="curve"/>
    </contour>
  </outline>
</glyph>
<glyph name="zero" format="1">
  <advance width="600"/>
  <unicode hex="0030"/>
  <outline>
    <contour>
      <point x="441" y="653" type="line"/>
      <point x="416" y="685"/>
      <point x="354" y="728"/>
      <point x="318" y="728" type="curve" smooth="yes"/>
      <point x="167" y="728"/>
      <point x="53" y="568"/>
      <point x="53" y="340" type="curve" smooth="yes"/>
      <point x="53" y="130"/>
      <point x="173" y="-25"/>
      <point x="297" y="-25" type="curve"/>
      <point x="247" y="33" type="line"/>
      <point x="177" y="88"/>
      <point x="136" y="182"/>
      <point x="136" y="316" type="curve" smooth="yes"/>
      <point x="136" y="497"/>
      <point x="215" y="658"/>
      <point x="332" y="658" type="curve" smooth="yes"/>
      <point x="372" y="658"/>
      <point x="392" y="654"/>
      <point x="426" y="641" type="curve"/>
    </contour>
    <contour>
      <point x="174" y="50" type="line"/>
      <point x="199" y="18"/>
      <point x="261" y="-25"/>
      <point x="297" y="-25" type="curve" smooth="yes"/>
      <point x="448" y="-25"/>
      <point x="562" y="135"/>
      <point x="562" y="363" type="curve" smooth="yes"/>
      <point x="562" y="573"/>
      <point x="442" y="728"/>
      <point x="318" y="728" type="curve"/>
      <point x="368" y="670" type="line"/>
      <point x="439" y="615"/>
      <point x="479" y="521"/>
      <point x="479" y="387" type="curve" smooth="yes"/>
      <point x="479" y="206"/>
      <point x="400" y="45"/>
      <point x="283" y="45" type="curve" smooth="yes"/>
      <point x="243" y="45"/>
      <point x="223" y="49"/>
      <point x="189" y="62" type="curve"/>
    </contour>
    <contour>
      <point x="286" y="416" type="curve" smooth="yes"/>
      <point x="267" y="416"/>
      <point x="256" y="379"/>
      <point x="256" y="329" type="curve" smooth="yes"/>
      <point x="256" y="307"/>
      <point x="277" y="297"/>
      <point x="333" y="297" type="curve" smooth="yes"/>
      <point x="352" y="297"/>
      <point x="363" y="331"/>
      <point x="363" y="390" type="curve" smooth="yes"/>
      <point x="363" y="405"/>
      <point x="333" y="416"/>
    </contour>
  </outline>
</glyph>
<glyph name="one" format="1">
  <advance width="600"/>
  <unicode hex="0031"/>
  <outline>
    <contour>
      <point x="298" y="712" type="line"/>
      <point x="289" y="536"/>
      <point x="265" y="224"/>
      <point x="265" y="77" type="curve" smooth="yes"/>
      <point x="265" y="39"/>
      <point x="318" y="0"/>
      <point x="356" y="0" type="curve"/>
      <point x="370" y="0" type="line"/>
      <point x="364" y="40"/>
      <point x="360" y="75"/>
      <point x="360" y="113" type="curve" smooth="yes"/>
      <point x="360" y="264"/>
      <point x="388" y="523"/>
      <point x="388" y="651" type="curve" smooth="yes"/>
      <point x="388" y="678"/>
      <point x="350" y="711"/>
      <point x="313" y="712" type="curve"/>
    </contour>
    <contour>
      <point x="49" y="95" type="curve"/>
      <point x="49" y="85" type="line"/>
      <point x="54" y="59"/>
      <point x="83" y="-1"/>
      <point x="105" y="-1" type="curve" smooth="yes"/>
      <point x="159" y="-1"/>
      <point x="233" y="1"/>
      <point x="296" y="0" type="curve" smooth="yes"/>
      <point x="333" y="-1"/>
      <point x="501" y="-2"/>
      <point x="559" y="-2" type="curve"/>
      <point x="559" y="9" type="line"/>
      <point x="551" y="49"/>
      <point x="515" y="93"/>
      <point x="491" y="93" type="curve" smooth="yes"/>
      <point x="458" y="93"/>
      <point x="385" y="90"/>
      <point x="308" y="89" type="curve" smooth="yes"/>
      <point x="201" y="86"/>
      <point x="114" y="95"/>
    </contour>
    <contour>
      <point x="35" y="566" type="curve"/>
      <point x="35" y="557" type="line"/>
      <point x="52" y="535"/>
      <point x="88" y="509"/>
      <point x="110" y="509" type="curve" smooth="yes"/>
      <point x="141" y="509"/>
      <point x="240" y="585"/>
      <point x="322" y="631" type="curve" smooth="yes"/>
      <point x="346" y="644"/>
      <point x="367" y="644"/>
      <point x="388" y="651" type="curve"/>
      <point x="388" y="703"/>
      <point x="333" y="723"/>
      <point x="310" y="723" type="curve" smooth="yes"/>
      <point x="303" y="723"/>
      <point x="296" y="722"/>
      <point x="291" y="719" type="curve" smooth="yes"/>
      <point x="220" y="679"/>
      <point x="95" y="595"/>
    </contour>
  </outline>
</glyph>
<glyph name="less" format="1">
  <advance width="600"/>
  <unicode hex="003C"/>
  <outline>
    <contour>
      <point x="69" y="341" type="curve"/>
      <point x="69" y="332" type="line"/>
      <point x="90" y="306"/>
      <point x="137" y="254"/>
      <point x="157" y="270" type="curve" smooth="yes"/>
      <point x="257" y="348"/>
      <point x="411" y="448"/>
      <point x="533" y="507" type="curve"/>
      <point x="533" y="522" type="line"/>
      <point x="514" y="549"/>
      <point x="477" y="571"/>
      <point x="455" y="571" type="curve" smooth="yes"/>
      <point x="420" y="571"/>
      <point x="188" y="411"/>
    </contour>
    <contour>
      <point x="129" y="347" type="curve"/>
      <point x="69" y="332" type="line"/>
      <point x="78" y="308"/>
      <point x="94" y="275"/>
      <point x="106" y="263" type="curve" smooth="yes"/>
      <point x="150" y="219"/>
      <point x="412" y="50"/>
      <point x="529" y="30" type="curve"/>
      <point x="529" y="45" type="line"/>
      <point x="517" y="72"/>
      <point x="507" y="95"/>
      <point x="488" y="114" type="curve" smooth="yes"/>
      <point x="453" y="149"/>
      <point x="303" y="231"/>
    </contour>
  </outline>
</glyph>
<glyph name="equal" format="1">
  <advance width="610"/>
  <unicode hex="003D"/>
  <outline>
    <contour>
      <point x="53" y="468" type="curve"/>
      <point x="53" y="458" type="line"/>
      <point x="58" y="432"/>
      <point x="87" y="373"/>
      <point x="109" y="373" type="curve" smooth="yes"/>
      <point x="163" y="373"/>
      <point x="236" y="374"/>
      <point x="300" y="374" type="curve" smooth="yes"/>
      <point x="337" y="374"/>
      <point x="505" y="372"/>
      <point x="563" y="372" type="curve"/>
      <point x="563" y="382" type="line"/>
      <point x="554" y="422"/>
      <point x="519" y="466"/>
      <point x="495" y="466" type="curve" smooth="yes"/>
      <point x="462" y="466"/>
      <point x="388" y="463"/>
      <point x="312" y="462" type="curve" smooth="yes"/>
      <point x="205" y="461"/>
      <point x="117" y="468"/>
    </contour>
    <contour>
      <point x="43" y="243" type="curve"/>
      <point x="43" y="233" type="line"/>
      <point x="48" y="207"/>
      <point x="77" y="148"/>
      <point x="99" y="148" type="curve" smooth="yes"/>
      <point x="153" y="148"/>
      <point x="227" y="149"/>
      <point x="290" y="149" type="curve" smooth="yes"/>
      <point x="326" y="149"/>
      <point x="495" y="147"/>
      <point x="553" y="147" type="curve"/>
      <point x="553" y="157" type="line"/>
      <point x="544" y="197"/>
      <point x="509" y="241"/>
      <point x="485" y="241" type="curve" smooth="yes"/>
      <point x="452" y="241"/>
      <point x="378" y="238"/>
      <point x="302" y="237" type="curve" smooth="yes"/>
      <point x="195" y="236"/>
      <point x="107" y="243"/>
    </contour>
  </outline>
</glyph>
<glyph name="bracketleft" format="1">
  <advance width="600"/>
  <unicode hex="005B"/>
  <outline>
    <contour>
      <point x="254" y="328" type="curve"/>
      <point x="224" y="362"/>
      <point x="194" y="362"/>
      <point x="165" y="328" type="curve"/>
      <point x="165" y="153"/>
      <point x="155" y="21"/>
      <point x="167" y="-31" type="curve" smooth="yes"/>
      <point x="172" y="-49"/>
      <point x="204" y="-104"/>
      <point x="243" y="-115" type="curve" smooth="yes"/>
      <point x="278" y="-126"/>
      <point x="384" y="-144"/>
      <point x="472" y="-144" type="curve"/>
      <point x="472" y="-133" type="line"/>
      <point x="464" y="-94"/>
      <point x="426" y="-55"/>
      <point x="400" y="-55" type="curve" smooth="yes"/>
      <point x="378" y="-55"/>
      <point x="301" y="-48"/>
      <point x="226" y="-21" type="curve"/>
      <point x="253" y="-49" type="line"/>
      <point x="244" y="57"/>
      <point x="254" y="191"/>
    </contour>
    <contour>
      <point x="254" y="328" type="line"/>
      <point x="254" y="424"/>
      <point x="252" y="577"/>
      <point x="252" y="675" type="curve"/>
      <point x="222" y="644" type="line"/>
      <point x="329" y="681"/>
      <point x="432" y="679"/>
      <point x="477" y="679" type="curve"/>
      <point x="477" y="691" type="line"/>
      <point x="477" y="715"/>
      <point x="430" y="759"/>
      <point x="403" y="759" type="curve" smooth="yes"/>
      <point x="358" y="759"/>
      <point x="265" y="750"/>
      <point x="232" y="732" type="curve" smooth="yes"/>
      <point x="211" y="720"/>
      <point x="168" y="691"/>
      <point x="165" y="651" type="curve" smooth="yes"/>
      <point x="156" y="574"/>
      <point x="165" y="490"/>
      <point x="165" y="328" type="curve"/>
    </contour>
  </outline>
</glyph>
<glyph name="a" format="1">
  <advance width="600"/>
  <unicode hex="0061"/>
  <outline>
    <contour>
      <point x="421" y="280" type="line"/>
      <point x="382" y="301"/>
      <point x="335" y="320"/>
      <point x="243" y="321" type="curve" smooth="yes"/>
      <point x="128" y="321"/>
      <point x="37" y="241"/>
      <point x="37" y="156" type="curve" smooth="yes"/>
      <point x="37" y="40"/>
      <point x="108" y="-20"/>
      <point x="199" y="-20" type="curve" smooth="yes"/>
      <point x="296" y="-20"/>
      <point x="366" y="31"/>
      <point x="413" y="122" type="curve"/>
      <point x="413" y="193" type="line"/>
      <point x="329" y="97"/>
      <point x="264" y="63"/>
      <point x="181" y="63" type="curve" smooth="yes"/>
      <point x="129" y="63"/>
      <point x="91" y="95"/>
      <point x="78" y="161" type="curve"/>
      <point x="71" y="125" type="line"/>
      <point x="102" y="89" type="line"/>
      <point x="93" y="105"/>
      <point x="92" y="113"/>
      <point x="92" y="129" type="curve" smooth="yes"/>
      <point x="92" y="206"/>
      <point x="174" y="252"/>
      <point x="252" y="251" type="curve" smooth="yes"/>
      <point x="300" y="250"/>
      <point x="357" y="238"/>
      <point x="407" y="212" type="curve"/>
    </contour>
    <contour>
      <point x="82" y="492" type="line"/>
      <point x="99" y="454"/>
      <point x="113" y="437"/>
      <point x="132" y="437" type="curve" smooth="yes"/>
      <point x="174" y="437"/>
      <point x="222" y="474"/>
      <point x="294" y="474" type="curve" smooth="yes"/>
      <point x="337" y="474"/>
      <point x="371" y="467"/>
      <point x="414" y="448" type="curve"/>
      <point x="384" y="471" type="line"/>
      <point x="403" y="442"/>
      <point x="409" y="415"/>
      <point x="409" y="377" type="curve" smooth="yes"/>
      <point x="409" y="278"/>
      <point x="386" y="212"/>
      <point x="386" y="133" type="curve" smooth="yes"/>
      <point x="386" y="51"/>
      <point x="422" y="-12"/>
      <point x="483" y="-12" type="curve" smooth="yes"/>
      <point x="533" y="-12"/>
      <point x="567" y="38"/>
      <point x="567" y="142" type="curve"/>
      <point x="554" y="142" type="line"/>
      <point x="525" y="81"/>
      <point x="496" y="61"/>
      <point x="431" y="57" type="curve"/>
      <point x="473" y="46" type="line"/>
      <point x="459" y="72"/>
      <point x="456" y="90"/>
      <point x="456" y="120" type="curve" smooth="yes"/>
      <point x="456" y="195"/>
      <point x="480" y="246"/>
      <point x="480" y="377" type="curve" smooth="yes"/>
      <point x="480" y="466"/>
      <point x="401" y="548"/>
      <point x="275" y="548" type="curve" smooth="yes"/>
      <point x="219" y="548"/>
      <point x="146" y="531"/>
      <point x="82" y="501" type="curve"/>
    </contour>
  </outline>
</glyph>
<glyph name="c" format="1">
  <advance width="600"/>
  <unicode hex="0063"/>
  <outline>
    <contour>
      <point x="549" y="442" type="curve" smooth="yes"/>
      <point x="549" y="496"/>
      <point x="474" y="548"/>
      <point x="391" y="548" type="curve" smooth="yes"/>
      <point x="228" y="548"/>
      <point x="56" y="421"/>
      <point x="56" y="190" type="curve" smooth="yes"/>
      <point x="56" y="66"/>
      <point x="170" y="-25"/>
      <point x="303" y="-25" type="curve" smooth="yes"/>
      <point x="437" y="-25"/>
      <point x="548" y="54"/>
      <point x="548" y="104" type="curve" smooth="yes"/>
      <point x="548" y="125"/>
      <point x="541" y="143"/>
      <point x="532" y="163" type="curve"/>
      <point x="523" y="163" type="line"/>
      <point x="450" y="84"/>
      <point x="364" y="57"/>
      <point x="289" y="57" type="curve" smooth="yes"/>
      <point x="209" y="57"/>
      <point x="158" y="86"/>
      <point x="126" y="129" type="curve"/>
      <point x="124" y="80" type="line"/>
      <point x="162" y="70" type="line"/>
      <point x="146" y="120"/>
      <point x="143" y="142"/>
      <point x="143" y="173" type="curve" smooth="yes"/>
      <point x="143" y="339"/>
      <point x="252" y="470"/>
      <point x="392" y="470" type="curve" smooth="yes"/>
      <point x="434" y="470"/>
      <point x="465" y="458"/>
      <point x="491" y="433" type="curve"/>
      <point x="491" y="467" type="line"/>
      <point x="466" y="484" type="line"/>
      <point x="463" y="446"/>
      <point x="453" y="400"/>
      <point x="453" y="369" type="curve" smooth="yes"/>
      <point x="453" y="344"/>
      <point x="485" y="324"/>
      <point x="523" y="316" type="curve"/>
      <point x="538" y="316" type="line"/>
      <point x="538" y="351"/>
      <point x="549" y="398"/>
    </contour>
  </outline>
</glyph>
<glyph name="d" format="1">
  <advance width="600"/>
  <unicode hex="0064"/>
  <outline>
    <contour>
      <point x="463" y="759" type="line"/>
      <point x="463" y="590"/>
      <point x="425" y="195"/>
      <point x="425" y="71" type="curve" smooth="yes"/>
      <point x="425" y="30"/>
      <point x="474" y="-10"/>
      <point x="510" y="-10" type="curve"/>
      <point x="520" y="-10" type="line"/>
      <point x="513" y="33"/>
      <point x="510" y="72"/>
      <point x="510" y="113" type="curve" smooth="yes"/>
      <point x="510" y="236"/>
      <point x="550" y="594"/>
      <point x="550" y="677" type="curve" smooth="yes"/>
      <point x="550" y="720"/>
      <point x="509" y="751"/>
      <point x="474" y="759" type="curve"/>
    </contour>
    <contour>
      <point x="480" y="441" type="line"/>
      <point x="423" y="507"/>
      <point x="370" y="538"/>
      <point x="282" y="538" type="curve" smooth="yes"/>
      <point x="166" y="538"/>
      <point x="54" y="445"/>
      <point x="54" y="205" type="curve" smooth="yes"/>
      <point x="54" y="54"/>
      <point x="144" y="-25"/>
      <point x="215" y="-25" type="curve" smooth="yes"/>
      <point x="312" y="-25"/>
      <point x="399" y="84"/>
      <point x="449" y="180" type="curve"/>
      <point x="448" y="276" type="line"/>
      <point x="353" y="118"/>
      <point x="264" y="71"/>
      <point x="195" y="71" type="curve" smooth="yes"/>
      <point x="158" y="71"/>
      <point x="137" y="85"/>
      <point x="115" y="124" type="curve"/>
      <point x="111" y="83" type="line"/>
      <point x="165" y="67" type="line"/>
      <point x="153" y="105"/>
      <point x="148" y="134"/>
      <point x="148" y="191" type="curve" smooth="yes"/>
      <point x="148" y="363"/>
      <point x="206" y="467"/>
      <point x="315" y="467" type="curve" smooth="yes"/>
      <point x="372" y="467"/>
      <point x="418" y="444"/>
      <point x="459" y="373" type="curve"/>
    </contour>
  </outline>
</glyph>
<glyph name="e" format="1">
  <advance width="600"/>
  <unicode hex="0065"/>
  <outline>
    <contour>
      <point x="144" y="310" type="curve"/>
      <point x="144" y="295" type="line"/>
      <point x="155" y="236"/>
      <point x="173" y="216"/>
      <point x="275" y="216" type="curve" smooth="yes"/>
      <point x="484" y="216"/>
      <point x="550" y="309"/>
      <point x="550" y="405" type="curve" smooth="yes"/>
      <point x="550" y="475"/>
      <point x="472" y="548"/>
      <point x="374" y="548" type="curve" smooth="yes"/>
      <point x="213" y="548"/>
      <point x="56" y="429"/>
      <point x="56" y="194" type="curve" smooth="yes"/>
      <point x="56" y="57"/>
      <point x="158" y="-22"/>
      <point x="287" y="-22" type="curve" smooth="yes"/>
      <point x="429" y="-22"/>
      <point x="540" y="51"/>
      <point x="540" y="90" type="curve" smooth="yes"/>
      <point x="540" y="133"/>
      <point x="536" y="148"/>
      <point x="527" y="167" type="curve"/>
      <point x="518" y="167" type="line"/>
      <point x="443" y="96"/>
      <point x="365" y="74"/>
      <point x="273" y="74" type="curve" smooth="yes"/>
      <point x="199" y="74"/>
      <point x="162" y="98"/>
      <point x="126" y="156" type="curve"/>
      <point x="122" y="97" type="line"/>
      <point x="163" y="77" type="line"/>
      <point x="152" y="129"/>
      <point x="147" y="141"/>
      <point x="147" y="172" type="curve" smooth="yes"/>
      <point x="147" y="341"/>
      <point x="238" y="467"/>
      <point x="382" y="467" type="curve" smooth="yes"/>
      <point x="421" y="467"/>
      <point x="471" y="453"/>
      <point x="482" y="404" type="curve"/>
      <point x="492" y="446" type="line"/>
      <point x="467" y="465" type="line"/>
      <point x="471" y="453"/>
      <point x="473" y="441"/>
      <point x="473" y="430" type="curve" smooth="yes"/>
      <point x="473" y="345"/>
      <point x="412" y="298"/>
      <point x="260" y="298" type="curve" smooth="yes"/>
      <point x="224" y="298"/>
      <point x="186" y="302"/>
    </contour>
  </outline>
</glyph>
<glyph name="f" format="1">
  <advance width="600"/>
  <unicode hex="0066"/>
  <outline>
    <contour>
      <point x="339" y="665" type="curve"/>
      <point x="311" y="618" type="line"/>
      <point x="395" y="653"/>
      <point x="473" y="660"/>
      <point x="553" y="660" type="curve"/>
      <point x="553" y="676" type="line"/>
      <point x="553" y="705"/>
      <point x="497" y="759"/>
      <point x="464" y="759" type="curve" smooth="yes"/>
      <point x="423" y="759"/>
      <point x="344" y="743"/>
      <point x="308" y="724" type="curve" smooth="yes"/>
      <point x="285" y="711"/>
      <point x="240" y="676"/>
      <point x="236" y="629" type="curve" smooth="yes"/>
      <point x="213" y="403"/>
      <point x="209" y="189"/>
      <point x="209" y="101" type="curve" smooth="yes"/>
      <point x="209" y="51"/>
      <point x="262" y="0"/>
      <point x="300" y="0" type="curve"/>
      <point x="319" y="0" type="line"/>
      <point x="312" y="43"/>
      <point x="309" y="82"/>
      <point x="309" y="123" type="curve" smooth="yes"/>
      <point x="309" y="227"/>
      <point x="322" y="523"/>
    </contour>
    <contour>
      <point x="51" y="493" type="curve"/>
      <point x="51" y="483" type="line"/>
      <point x="57" y="456"/>
      <point x="81" y="405"/>
      <point x="111" y="405" type="curve"/>
      <point x="246" y="405"/>
      <point x="445" y="390"/>
      <point x="544" y="411" type="curve"/>
      <point x="544" y="425" type="line"/>
      <point x="527" y="456"/>
      <point x="505" y="478"/>
      <point x="482" y="498" type="curve"/>
      <point x="462" y="493"/>
      <point x="446" y="490"/>
      <point x="355" y="490" type="curve" smooth="yes"/>
      <point x="288" y="490"/>
      <point x="119" y="490"/>
    </contour>
    <contour>
      <point x="49" y="95" type="curve"/>
      <point x="49" y="85" type="line"/>
      <point x="54" y="59"/>
      <point x="83" y="-1"/>
      <point x="105" y="-1" type="curve" smooth="yes"/>
      <point x="159" y="-1"/>
      <point x="233" y="1"/>
      <point x="296" y="0" type="curve" smooth="yes"/>
      <point x="332" y="-1"/>
      <point x="497" y="-2"/>
      <point x="554" y="-2" type="curve"/>
      <point x="554" y="11" type="line"/>
      <point x="546" y="50"/>
      <point x="510" y="93"/>
      <point x="486" y="93" type="curve" smooth="yes"/>
      <point x="454" y="93"/>
      <point x="383" y="90"/>
      <point x="308" y="89" type="curve" smooth="yes"/>
      <point x="201" y="86"/>
      <point x="114" y="95"/>
    </contour>
  </outline>
</glyph>
<glyph name="g" format="1">
  <advance width="600"/>
  <unicode hex="0067"/>
  <outline>
    <contour>
      <point x="527" y="523" type="curve" smooth="yes"/>
      <point x="517" y="533"/>
      <point x="467" y="544"/>
      <point x="359" y="544" type="curve" smooth="yes"/>
      <point x="174" y="544"/>
      <point x="59" y="466"/>
      <point x="59" y="333" type="curve" smooth="yes"/>
      <point x="59" y="237"/>
      <point x="135" y="120"/>
      <point x="299" y="120" type="curve" smooth="yes"/>
      <point x="422" y="120"/>
      <point x="499" y="207"/>
      <point x="499" y="300" type="curve" smooth="yes"/>
      <point x="499" y="381"/>
      <point x="449" y="434"/>
      <point x="343" y="479" type="curve"/>
      <point x="282" y="475" type="line"/>
      <point x="382" y="427"/>
      <point x="425" y="379"/>
      <point x="425" y="321" type="curve" smooth="yes"/>
      <point x="425" y="249"/>
      <point x="363" y="191"/>
      <point x="267" y="191" type="curve" smooth="yes"/>
      <point x="215" y="191"/>
      <point x="165" y="213"/>
      <point x="114" y="260" type="curve"/>
      <point x="126" y="220" type="line"/>
      <point x="161" y="212" type="line"/>
      <point x="139" y="241"/>
      <point x="127" y="262"/>
      <point x="127" y="301" type="curve" smooth="yes"/>
      <point x="127" y="408"/>
      <point x="210" y="468"/>
      <point x="373" y="468" type="curve" smooth="yes"/>
      <point x="441" y="468"/>
      <point x="488" y="462"/>
      <point x="569" y="449" type="curve"/>
      <point x="569" y="460" type="line"/>
      <point x="564" y="480"/>
      <point x="544" y="506"/>
    </contour>
    <contour>
      <point x="188" y="175" type="line"/>
      <point x="87" y="139"/>
      <point x="48" y="74"/>
      <point x="48" y="21" type="curve" smooth="yes"/>
      <point x="48" y="-25"/>
      <point x="89" y="-79"/>
      <point x="140" y="-79" type="curve" smooth="yes"/>
      <point x="230" y="-79"/>
      <point x="312" y="-65"/>
      <point x="397" y="-65" type="curve" smooth="yes"/>
      <point x="445" y="-65"/>
      <point x="475" y="-74"/>
      <point x="503" y="-92" type="curve"/>
      <point x="475" y="-55" type="line"/>
      <point x="475" y="-117"/>
      <point x="450" y="-165"/>
      <point x="398" y="-213" type="curve"/>
      <point x="408" y="-231" type="line"/>
      <point x="485" y="-218"/>
      <point x="554" y="-155"/>
      <point x="554" y="-101" type="curve" smooth="yes"/>
      <point x="554" y="-59"/>
      <point x="527" y="-22"/>
      <point x="513" y="-8" type="curve" smooth="yes"/>
      <point x="495" y="10"/>
      <point x="468" y="19"/>
      <point x="388" y="19" type="curve" smooth="yes"/>
      <point x="286" y="19"/>
      <point x="219" y="3"/>
      <point x="111" y="3" type="curve"/>
      <point x="154" y="-14" type="line"/>
      <point x="136" y="6"/>
      <point x="133" y="13"/>
      <point x="133" y="39" type="curve" smooth="yes"/>
      <point x="133" y="77"/>
      <point x="164" y="128"/>
      <point x="210" y="150" type="curve"/>
    </contour>
  </outline>
</glyph>
<glyph name="h" format="1">
  <advance width="600"/>
  <unicode hex="0068"/>
  <outline>
    <contour>
      <point x="146" y="427" type="curve"/>
      <point x="146" y="412"/>
      <point x="145" y="398"/>
      <point x="150" y="355" type="curve"/>
      <point x="242" y="433"/>
      <point x="330" y="461"/>
      <point x="468" y="461" type="curve"/>
      <point x="448" y="484" type="line"/>
      <point x="445" y="328"/>
      <point x="413" y="182"/>
      <point x="413" y="51" type="curve" smooth="yes"/>
      <point x="413" y="16"/>
      <point x="461" y="-14"/>
      <point x="496" y="-14" type="curve"/>
      <point x="509" y="-14" type="line"/>
      <point x="503" y="27"/>
      <point x="499" y="64"/>
      <point x="499" y="103" type="curve" smooth="yes"/>
      <point x="499" y="225"/>
      <point x="532" y="356"/>
      <point x="532" y="459" type="curve" smooth="yes"/>
      <point x="532" y="499"/>
      <point x="470" y="543"/>
      <point x="422" y="543" type="curve" smooth="yes"/>
      <point x="354" y="543"/>
      <point x="267" y="520"/>
    </contour>
    <contour>
      <point x="107" y="759" type="line"/>
      <point x="107" y="583"/>
      <point x="68" y="172"/>
      <point x="68" y="42" type="curve" smooth="yes"/>
      <point x="68" y="16"/>
      <point x="118" y="-10"/>
      <point x="154" y="-10" type="curve"/>
      <point x="164" y="-10" type="line"/>
      <point x="157" y="33"/>
      <point x="154" y="72"/>
      <point x="154" y="113" type="curve" smooth="yes"/>
      <point x="154" y="236"/>
      <point x="194" y="594"/>
      <point x="194" y="677" type="curve" smooth="yes"/>
      <point x="194" y="720"/>
      <point x="153" y="751"/>
      <point x="119" y="759" type="curve"/>
    </contour>
  </outline>
</glyph>
<glyph name="i" format="1">
  <advance width="600"/>
  <unicode hex="0069"/>
  <outline>
    <contour>
      <point x="65" y="533" type="curve"/>
      <point x="65" y="523" type="line"/>
      <point x="71" y="497"/>
      <point x="98" y="442"/>
      <point x="124" y="442" type="curve" smooth="yes"/>
      <point x="163" y="442"/>
      <point x="222" y="447"/>
      <point x="274" y="447" type="curve" smooth="yes"/>
      <point x="304" y="446"/>
      <point x="324" y="445"/>
      <point x="349" y="442" type="curve"/>
      <point x="350" y="497"/>
      <point x="329" y="530"/>
      <point x="308" y="530" type="curve" smooth="yes"/>
      <point x="241" y="530"/>
      <point x="118" y="530"/>
    </contour>
    <contour>
      <point x="298" y="530" type="line"/>
      <point x="291" y="378"/>
      <point x="265" y="203"/>
      <point x="265" y="77" type="curve" smooth="yes"/>
      <point x="265" y="39"/>
      <point x="318" y="0"/>
      <point x="356" y="0" type="curve"/>
      <point x="370" y="0" type="line"/>
      <point x="364" y="40"/>
      <point x="360" y="75"/>
      <point x="360" y="113" type="curve" smooth="yes"/>
      <point x="360" y="235"/>
      <point x="388" y="355"/>
      <point x="388" y="458" type="curve" smooth="yes"/>
      <point x="388" y="490"/>
      <point x="351" y="529"/>
      <point x="313" y="530" type="curve"/>
    </contour>
    <contour>
      <point x="49" y="95" type="curve"/>
      <point x="49" y="85" type="line"/>
      <point x="54" y="59"/>
      <point x="83" y="-1"/>
      <point x="105" y="-1" type="curve" smooth="yes"/>
      <point x="159" y="-1"/>
      <point x="233" y="1"/>
      <point x="296" y="0" type="curve" smooth="yes"/>
      <point x="333" y="-1"/>
      <point x="501" y="-2"/>
      <point x="559" y="-2" type="curve"/>
      <point x="559" y="9" type="line"/>
      <point x="551" y="49"/>
      <point x="515" y="93"/>
      <point x="491" y="93" type="curve" smooth="yes"/>
      <point x="458" y="93"/>
      <point x="385" y="90"/>
      <point x="308" y="89" type="curve" smooth="yes"/>
      <point x="201" y="86"/>
      <point x="114" y="95"/>
    </contour>
    <contour>
      <point x="302" y="765" type="curve" smooth="yes"/>
      <point x="279" y="765"/>
      <point x="265" y="726"/>
      <point x="265" y="673" type="curve" smooth="yes"/>
      <point x="265" y="645"/>
      <point x="294" y="633"/>
      <point x="372" y="633" type="curve" smooth="yes"/>
      <point x="397" y="633"/>
      <point x="411" y="669"/>
      <point x="411" y="732" type="curve" smooth="yes"/>
      <point x="411" y="751"/>
      <point x="370" y="765"/>
    </contour>
  </outline>
</glyph>
<glyph name="j" format="1">
  <advance width="601"/>
  <unicode hex="006A"/>
  <outline>
    <contour>
      <point x="75" y="533" type="curve"/>
      <point x="75" y="524" type="line"/>
      <point x="80" y="499"/>
      <point x="105" y="449"/>
      <point x="129" y="449" type="curve" smooth="yes"/>
      <point x="185" y="449"/>
      <point x="268" y="455"/>
      <point x="341" y="453" type="curve" smooth="yes"/>
      <point x="370" y="452"/>
      <point x="391" y="451"/>
      <point x="415" y="449" type="curve"/>
      <point x="416" y="500"/>
      <point x="397" y="530"/>
      <point x="377" y="530" type="curve" smooth="yes"/>
      <point x="294" y="530"/>
      <point x="140" y="529"/>
    </contour>
    <contour>
      <point x="349" y="-144" type="curve"/>
      <point x="374" y="-103" type="line"/>
      <point x="294" y="-139"/>
      <point x="215" y="-153"/>
      <point x="116" y="-153" type="curve"/>
      <point x="116" y="-167" type="line"/>
      <point x="116" y="-194"/>
      <point x="169" y="-241"/>
      <point x="199" y="-241" type="curve" smooth="yes"/>
      <point x="249" y="-241"/>
      <point x="335" y="-220"/>
      <point x="373" y="-198" type="curve" smooth="yes"/>
      <point x="412" y="-176"/>
      <point x="440" y="-140"/>
      <point x="443" y="-106" type="curve" smooth="yes"/>
      <point x="460" y="60"/>
      <point x="469" y="248"/>
      <point x="469" y="449" type="curve" smooth="yes"/>
      <point x="469" y="486"/>
      <point x="419" y="530"/>
      <point x="377" y="530" type="curve"/>
      <point x="368" y="521" type="line"/>
      <point x="379" y="488"/>
      <point x="381" y="463"/>
      <point x="381" y="400" type="curve" smooth="yes"/>
      <point x="381" y="220"/>
      <point x="366" y="-27"/>
    </contour>
    <contour>
      <point x="364" y="764" type="curve" smooth="yes"/>
      <point x="341" y="764"/>
      <point x="329" y="727"/>
      <point x="329" y="677" type="curve" smooth="yes"/>
      <point x="329" y="651"/>
      <point x="356" y="640"/>
      <point x="429" y="640" type="curve" smooth="yes"/>
      <point x="451" y="640"/>
      <point x="465" y="673"/>
      <point x="465" y="733" type="curve" smooth="yes"/>
      <point x="465" y="751"/>
      <point x="426" y="764"/>
    </contour>
  </outline>
</glyph>
<glyph name="l" format="1">
  <advance width="600"/>
  <unicode hex="006C"/>
  <outline>
    <contour>
      <point x="65" y="763" type="curve"/>
      <point x="65" y="753" type="line"/>
      <point x="71" y="726"/>
      <point x="98" y="672"/>
      <point x="124" y="672" type="curve" smooth="yes"/>
      <point x="164" y="672"/>
      <point x="222" y="677"/>
      <point x="274" y="676" type="curve" smooth="yes"/>
      <point x="304" y="676"/>
      <point x="324" y="674"/>
      <point x="349" y="672" type="curve"/>
      <point x="350" y="726"/>
      <point x="329" y="760"/>
      <point x="308" y="760" type="curve" smooth="yes"/>
      <point x="241" y="760"/>
      <point x="118" y="760"/>
    </contour>
    <contour>
      <point x="298" y="760" type="line"/>
      <point x="289" y="570"/>
      <point x="265" y="234"/>
      <point x="265" y="77" type="curve" smooth="yes"/>
      <point x="265" y="39"/>
      <point x="318" y="0"/>
      <point x="356" y="0" type="curve"/>
      <point x="370" y="0" type="line"/>
      <point x="364" y="40"/>
      <point x="360" y="75"/>
      <point x="360" y="113" type="curve" smooth="yes"/>
      <point x="360" y="274"/>
      <point x="388" y="551"/>
      <point x="388" y="688" type="curve" smooth="yes"/>
      <point x="388" y="719"/>
      <point x="351" y="758"/>
      <point x="313" y="760" type="curve"/>
    </contour>
    <contour>
      <point x="49" y="95" type="curve"/>
      <point x="49" y="85" type="line"/>
      <point x="54" y="59"/>
      <point x="83" y="-1"/>
      <point x="105" y="-1" type="curve" smooth="yes"/>
      <point x="159" y="-1"/>
      <point x="233" y="1"/>
      <point x="296" y="0" type="curve" smooth="yes"/>
      <point x="333" y="-1"/>
      <point x="501" y="-2"/>
      <point x="559" y="-2" type="curve"/>
      <point x="559" y="9" type="line"/>
      <point x="551" y="49"/>
      <point x="515" y="93"/>
      <point x="491" y="93" type="curve" smooth="yes"/>
      <point x="458" y="93"/>
      <point x="385" y="90"/>
      <point x="308" y="89" type="curve" smooth="yes"/>
      <point x="201" y="86"/>
      <point x="114" y="95"/>
    </contour>
  </outline>
</glyph>
<glyph name="m" format="1">
  <advance width="600"/>
  <unicode hex="006D"/>
  <outline>
    <contour>
      <point x="62" y="550" type="line"/>
      <point x="54" y="385"/>
      <point x="34" y="184"/>
      <point x="34" y="47" type="curve" smooth="yes"/>
      <point x="34" y="16"/>
      <point x="81" y="-15"/>
      <point x="119" y="-15" type="curve"/>
      <point x="133" y="-15" type="line"/>
      <point x="127" y="27"/>
      <point x="123" y="64"/>
      <point x="123" y="103" type="curve" smooth="yes"/>
      <point x="123" y="232"/>
      <point x="146" y="370"/>
      <point x="146" y="478" type="curve" smooth="yes"/>
      <point x="146" y="510"/>
      <point x="113" y="545"/>
      <point x="77" y="550" type="curve"/>
    </contour>
    <contour>
      <point x="118" y="427" type="curve"/>
      <point x="117" y="411"/>
      <point x="116" y="395"/>
      <point x="121" y="348" type="curve"/>
      <point x="186" y="428"/>
      <point x="212" y="454"/>
      <point x="297" y="455" type="curve"/>
      <point x="273" y="479" type="line"/>
      <point x="269" y="324"/>
      <point x="242" y="180"/>
      <point x="242" y="64" type="curve" smooth="yes"/>
      <point x="242" y="18"/>
      <point x="279" y="-15"/>
      <point x="317" y="-15" type="curve"/>
      <point x="331" y="-15" type="line"/>
      <point x="325" y="27"/>
      <point x="321" y="64"/>
      <point x="321" y="103" type="curve" smooth="yes"/>
      <point x="321" y="225"/>
      <point x="354" y="356"/>
      <point x="354" y="459" type="curve" smooth="yes"/>
      <point x="354" y="499"/>
      <point x="317" y="543"/>
      <point x="276" y="543" type="curve" smooth="yes"/>
      <point x="223" y="543"/>
      <point x="196" y="522"/>
    </contour>
    <contour>
      <point x="306" y="427" type="curve"/>
      <point x="306" y="411"/>
      <point x="305" y="395"/>
      <point x="310" y="348" type="curve"/>
      <point x="375" y="429"/>
      <point x="411" y="454"/>
      <point x="496" y="455" type="curve"/>
      <point x="472" y="479" type="line"/>
      <point x="468" y="324"/>
      <point x="441" y="181"/>
      <point x="441" y="65" type="curve" smooth="yes"/>
      <point x="441" y="18"/>
      <point x="488" y="-15"/>
      <point x="526" y="-15" type="curve"/>
      <point x="540" y="-15" type="line"/>
      <point x="533" y="27"/>
      <point x="530" y="64"/>
      <point x="530" y="103" type="curve" smooth="yes"/>
      <point x="530" y="225"/>
      <point x="563" y="356"/>
      <point x="563" y="459" type="curve" smooth="yes"/>
      <point x="563" y="499"/>
      <point x="515" y="543"/>
      <point x="475" y="543" type="curve" smooth="yes"/>
      <point x="422" y="543"/>
      <point x="385" y="522"/>
    </contour>
  </outline>
</glyph>
<glyph name="n" format="1">
  <advance width="600"/>
  <unicode hex="006E"/>
  <outline>
    <contour>
      <point x="94" y="550" type="line"/>
      <point x="87" y="385"/>
      <point x="66" y="184"/>
      <point x="66" y="47" type="curve" smooth="yes"/>
      <point x="66" y="16"/>
      <point x="119" y="-15"/>
      <point x="157" y="-15" type="curve"/>
      <point x="171" y="-15" type="line"/>
      <point x="164" y="26"/>
      <point x="161" y="64"/>
      <point x="161" y="103" type="curve" smooth="yes"/>
      <point x="161" y="232"/>
      <point x="184" y="370"/>
      <point x="184" y="478" type="curve" smooth="yes"/>
      <point x="184" y="510"/>
      <point x="146" y="545"/>
      <point x="109" y="550" type="curve"/>
    </contour>
    <contour>
      <point x="150" y="427" type="curve"/>
      <point x="150" y="411"/>
      <point x="149" y="395"/>
      <point x="154" y="348" type="curve"/>
      <point x="244" y="424"/>
      <point x="328" y="452"/>
      <point x="462" y="455" type="curve"/>
      <point x="441" y="479" type="line"/>
      <point x="437" y="324"/>
      <point x="407" y="180"/>
      <point x="407" y="54" type="curve" smooth="yes"/>
      <point x="407" y="18"/>
      <point x="459" y="-15"/>
      <point x="497" y="-15" type="curve"/>
      <point x="511" y="-15" type="line"/>
      <point x="504" y="26"/>
      <point x="501" y="64"/>
      <point x="501" y="103" type="curve" smooth="yes"/>
      <point x="501" y="225"/>
      <point x="534" y="356"/>
      <point x="534" y="459" type="curve" smooth="yes"/>
      <point x="534" y="499"/>
      <point x="471" y="543"/>
      <point x="422" y="543" type="curve" smooth="yes"/>
      <point x="355" y="543"/>
      <point x="270" y="519"/>
    </contour>
  </outline>
</glyph>
<glyph name="o" format="1">
  <advance width="600"/>
  <unicode hex="006F"/>
  <outline>
    <contour>
      <point x="476" y="442" type="line"/>
      <point x="474" y="483"/>
      <point x="373" y="542"/>
      <point x="318" y="542" type="curve" smooth="yes"/>
      <point x="173" y="542"/>
      <point x="63" y="416"/>
      <point x="63" y="238" type="curve" smooth="yes"/>
      <point x="63" y="90"/>
      <point x="181" y="-19"/>
      <point x="297" y="-19" type="curve"/>
      <point x="217" y="45" type="line"/>
      <point x="178" y="80"/>
      <point x="149" y="135"/>
      <point x="149" y="216" type="curve" smooth="yes"/>
      <point x="149" y="344"/>
      <point x="218" y="467"/>
      <point x="318" y="467" type="curve" smooth="yes"/>
      <point x="367" y="467"/>
      <point x="394" y="463"/>
      <point x="446" y="433" type="curve"/>
    </contour>
    <contour>
      <point x="139" y="81" type="line"/>
      <point x="141" y="40"/>
      <point x="242" y="-19"/>
      <point x="297" y="-19" type="curve" smooth="yes"/>
      <point x="442" y="-19"/>
      <point x="552" y="107"/>
      <point x="552" y="285" type="curve" smooth="yes"/>
      <point x="552" y="433"/>
      <point x="434" y="542"/>
      <point x="318" y="542" type="curve"/>
      <point x="398" y="478" type="line"/>
      <point x="437" y="443"/>
      <point x="466" y="388"/>
      <point x="466" y="307" type="curve" smooth="yes"/>
      <point x="466" y="179"/>
      <point x="397" y="56"/>
      <point x="297" y="56" type="curve" smooth="yes"/>
      <point x="248" y="56"/>
      <point x="221" y="60"/>
      <point x="169" y="90" type="curve"/>
    </contour>
  </outline>
</glyph>
<glyph name="p" format="1">
  <advance width="600"/>
  <unicode hex="0070"/>
  <outline>
    <contour>
      <point x="142" y="-241" type="line"/>
      <point x="142" y="-71"/>
      <point x="180" y="327"/>
      <point x="180" y="452" type="curve" smooth="yes"/>
      <point x="180" y="492"/>
      <point x="130" y="533"/>
      <point x="94" y="533" type="curve"/>
      <point x="84" y="533" type="line"/>
      <point x="91" y="490"/>
      <point x="94" y="451"/>
      <point x="94" y="410" type="curve" smooth="yes"/>
      <point x="94" y="286"/>
      <point x="54" y="-76"/>
      <point x="54" y="-159" type="curve" smooth="yes"/>
      <point x="54" y="-202"/>
      <point x="96" y="-233"/>
      <point x="130" y="-241" type="curve"/>
    </contour>
    <contour>
      <point x="124" y="82" type="line"/>
      <point x="181" y="15"/>
      <point x="235" y="-16"/>
      <point x="322" y="-16" type="curve" smooth="yes"/>
      <point x="438" y="-16"/>
      <point x="550" y="78"/>
      <point x="550" y="318" type="curve" smooth="yes"/>
      <point x="550" y="469"/>
      <point x="460" y="548"/>
      <point x="389" y="548" type="curve" smooth="yes"/>
      <point x="292" y="548"/>
      <point x="205" y="439"/>
      <point x="155" y="343" type="curve"/>
      <point x="157" y="247" type="line"/>
      <point x="252" y="406"/>
      <point x="340" y="453"/>
      <point x="409" y="453" type="curve" smooth="yes"/>
      <point x="446" y="453"/>
      <point x="467" y="439"/>
      <point x="490" y="399" type="curve"/>
      <point x="493" y="440" type="line"/>
      <point x="435" y="456" type="line"/>
      <point x="452" y="418"/>
      <point x="457" y="389"/>
      <point x="457" y="332" type="curve" smooth="yes"/>
      <point x="457" y="160"/>
      <point x="398" y="56"/>
      <point x="290" y="56" type="curve" smooth="yes"/>
      <point x="232" y="56"/>
      <point x="187" y="79"/>
      <point x="145" y="150" type="curve"/>
    </contour>
  </outline>
</glyph>
<glyph name="r" format="1">
  <advance width="600"/>
  <unicode hex="0072"/>
  <outline>
    <contour>
      <point x="60" y="533" type="curve"/>
      <point x="60" y="523" type="line"/>
      <point x="65" y="497"/>
      <point x="93" y="442"/>
      <point x="118" y="442" type="curve" smooth="yes"/>
      <point x="142" y="442"/>
      <point x="177" y="446"/>
      <point x="209" y="445" type="curve" smooth="yes"/>
      <point x="231" y="445"/>
      <point x="245" y="444"/>
      <point x="264" y="442" type="curve"/>
      <point x="265" y="497"/>
      <point x="244" y="530"/>
      <point x="223" y="530" type="curve" smooth="yes"/>
      <point x="178" y="530"/>
      <point x="95" y="531"/>
    </contour>
    <contour>
      <point x="208" y="530" type="line"/>
      <point x="200" y="353"/>
      <point x="175" y="213"/>
      <point x="175" y="77" type="curve" smooth="yes"/>
      <point x="175" y="39"/>
      <point x="227" y="0"/>
      <point x="265" y="0" type="curve"/>
      <point x="279" y="0" type="line"/>
      <point x="273" y="40"/>
      <point x="269" y="75"/>
      <point x="269" y="113" type="curve" smooth="yes"/>
      <point x="269" y="235"/>
      <point x="297" y="355"/>
      <point x="297" y="458" type="curve" smooth="yes"/>
      <point x="297" y="490"/>
      <point x="260" y="529"/>
      <point x="223" y="530" type="curve"/>
    </contour>
    <contour>
      <point x="44" y="95" type="curve"/>
      <point x="44" y="85" type="line"/>
      <point x="49" y="59"/>
      <point x="78" y="-1"/>
      <point x="100" y="-1" type="curve" smooth="yes"/>
      <point x="151" y="-1"/>
      <point x="222" y="1"/>
      <point x="283" y="0" type="curve" smooth="yes"/>
      <point x="311" y="-1"/>
      <point x="443" y="-2"/>
      <point x="489" y="-2" type="curve"/>
      <point x="489" y="11" type="line"/>
      <point x="480" y="50"/>
      <point x="445" y="93"/>
      <point x="421" y="93" type="curve" smooth="yes"/>
      <point x="395" y="93"/>
      <point x="339" y="90"/>
      <point x="280" y="89" type="curve" smooth="yes"/>
      <point x="183" y="86"/>
      <point x="102" y="95"/>
    </contour>
    <contour>
      <point x="274" y="418" type="curve"/>
      <point x="273" y="402"/>
      <point x="272" y="386"/>
      <point x="277" y="339" type="curve"/>
      <point x="352" y="430"/>
      <point x="402" y="456"/>
      <point x="484" y="457" type="curve"/>
      <point x="465" y="479" type="line"/>
      <point x="460" y="441"/>
      <point x="454" y="406"/>
      <point x="454" y="377" type="curve" smooth="yes"/>
      <point x="454" y="345"/>
      <point x="498" y="320"/>
      <point x="533" y="320" type="curve"/>
      <point x="547" y="320" type="line"/>
      <point x="538" y="375"/>
      <point x="552" y="419"/>
      <point x="552" y="459" type="curve" smooth="yes"/>
      <point x="552" y="499"/>
      <point x="505" y="543"/>
      <point x="464" y="543" type="curve" smooth="yes"/>
      <point x="406" y="543"/>
      <point x="348" y="509"/>
    </contour>
  </outline>
</glyph>
<glyph name="s" format="1">
  <advance width="600"/>
  <unicode hex="0073"/>
  <outline>
    <contour>
      <point x="353" y="555" type="curve" smooth="yes"/>
      <point x="222" y="556"/>
      <point x="117" y="481"/>
      <point x="117" y="391" type="curve" smooth="yes"/>
      <point x="117" y="312"/>
      <point x="178" y="262"/>
      <point x="268" y="224" type="curve" smooth="yes"/>
      <point x="337" y="195" type="line" smooth="yes"/>
      <point x="423" y="159"/>
      <point x="444" y="144"/>
      <point x="449" y="111" type="curve"/>
      <point x="451" y="142" type="line"/>
      <point x="427" y="93"/>
      <point x="376" y="69"/>
      <point x="295" y="69" type="curve" smooth="yes"/>
      <point x="201" y="69"/>
      <point x="141" y="98"/>
      <point x="100" y="166" type="curve"/>
      <point x="89" y="166" type="line"/>
      <point x="77" y="144"/>
      <point x="73" y="129"/>
      <point x="73" y="100" type="curve" smooth="yes"/>
      <point x="73" y="34"/>
      <point x="162" y="-16"/>
      <point x="306" y="-16" type="curve" smooth="yes"/>
      <point x="422" y="-16"/>
      <point x="519" y="47"/>
      <point x="519" y="133" type="curve" smooth="yes"/>
      <point x="519" y="183"/>
      <point x="489" y="205"/>
      <point x="382" y="246" type="curve" smooth="yes"/>
      <point x="309" y="274" type="line" smooth="yes"/>
      <point x="225" y="307"/>
      <point x="193" y="339"/>
      <point x="182" y="395" type="curve"/>
      <point x="182" y="363" type="line"/>
      <point x="198" y="426"/>
      <point x="273" y="479"/>
      <point x="355" y="479" type="curve" smooth="yes"/>
      <point x="383" y="479"/>
      <point x="412" y="474"/>
      <point x="443" y="456" type="curve"/>
      <point x="434" y="506" type="line"/>
      <point x="418" y="471"/>
      <point x="411" y="424"/>
      <point x="411" y="379" type="curve" smooth="yes"/>
      <point x="411" y="346"/>
      <point x="447" y="329"/>
      <point x="482" y="324" type="curve"/>
      <point x="495" y="324" type="line"/>
      <point x="490" y="386"/>
      <point x="504" y="424"/>
      <point x="504" y="470" type="curve" smooth="yes"/>
      <point x="504" y="508"/>
      <point x="424" y="554"/>
    </contour>
  </outline>
</glyph>
<glyph name="t" format="1">
  <advance width="600"/>
  <unicode hex="0074"/>
  <outline>
    <contour>
      <point x="41" y="533" type="curve"/>
      <point x="41" y="523" type="line"/>
      <point x="46" y="496"/>
      <point x="71" y="445"/>
      <point x="101" y="445" type="curve"/>
      <point x="236" y="445"/>
      <point x="435" y="430"/>
      <point x="534" y="451" type="curve"/>
      <point x="534" y="465" type="line"/>
      <point x="517" y="496"/>
      <point x="495" y="517"/>
      <point x="472" y="538" type="curve"/>
      <point x="452" y="533"/>
      <point x="436" y="530"/>
      <point x="345" y="530" type="curve" smooth="yes"/>
      <point x="278" y="530"/>
      <point x="109" y="530"/>
    </contour>
    <contour>
      <point x="184" y="688" type="line"/>
      <point x="184" y="372"/>
      <point x="142" y="296"/>
      <point x="142" y="123" type="curve" smooth="yes"/>
      <point x="142" y="56"/>
      <point x="205" y="-16"/>
      <point x="260" y="-16" type="curve" smooth="yes"/>
      <point x="438" y="-16"/>
      <point x="554" y="72"/>
      <point x="554" y="101" type="curve" smooth="yes"/>
      <point x="554" y="132"/>
      <point x="545" y="155"/>
      <point x="537" y="176" type="curve"/>
      <point x="529" y="176" type="line"/>
      <point x="431" y="96"/>
      <point x="299" y="66"/>
      <point x="210" y="70" type="curve"/>
      <point x="256" y="44" type="line"/>
      <point x="248" y="74"/>
      <point x="244" y="106"/>
      <point x="244" y="135" type="curve" smooth="yes"/>
      <point x="244" y="290"/>
      <point x="296" y="441"/>
      <point x="296" y="614" type="curve" smooth="yes"/>
      <point x="296" y="646"/>
      <point x="240" y="683"/>
      <point x="201" y="689" type="curve"/>
    </contour>
  </outline>
</glyph>
<glyph name="u" format="1">
  <advance width="600"/>
  <unicode hex="0075"/>
  <outline>
    <contour>
      <point x="445" y="123" type="curve"/>
      <point x="439" y="179" type="line"/>
      <point x="370" y="118"/>
      <point x="289" y="73"/>
      <point x="186" y="73" type="curve" smooth="yes"/>
      <point x="171" y="73"/>
      <point x="156" y="77"/>
      <point x="147" y="88" type="curve"/>
      <point x="168" y="57" type="line"/>
      <point x="168" y="211"/>
      <point x="197" y="332"/>
      <point x="197" y="481" type="curve" smooth="yes"/>
      <point x="197" y="518"/>
      <point x="145" y="550"/>
      <point x="107" y="550" type="curve"/>
      <point x="93" y="550" type="line"/>
      <point x="100" y="509"/>
      <point x="103" y="472"/>
      <point x="103" y="432" type="curve" smooth="yes"/>
      <point x="103" y="310"/>
      <point x="75" y="174"/>
      <point x="75" y="71" type="curve" smooth="yes"/>
      <point x="75" y="27"/>
      <point x="134" y="-17"/>
      <point x="177" y="-17" type="curve" smooth="yes"/>
      <point x="249" y="-17"/>
      <point x="354" y="40"/>
    </contour>
    <contour>
      <point x="499" y="-15" type="line"/>
      <point x="499" y="152"/>
      <point x="525" y="300"/>
      <point x="525" y="489" type="curve" smooth="yes"/>
      <point x="525" y="519"/>
      <point x="473" y="550"/>
      <point x="435" y="550" type="curve"/>
      <point x="421" y="550" type="line"/>
      <point x="427" y="509"/>
      <point x="431" y="472"/>
      <point x="431" y="432" type="curve" smooth="yes"/>
      <point x="431" y="304"/>
      <point x="408" y="166"/>
      <point x="408" y="57" type="curve" smooth="yes"/>
      <point x="408" y="26"/>
      <point x="448" y="-10"/>
      <point x="484" y="-15" type="curve"/>
    </contour>
  </outline>
</glyph>
<glyph name="v" format="1">
  <advance width="600"/>
  <unicode hex="0076"/>
  <outline>
    <contour>
      <point x="44" y="550" type="line"/>
      <point x="79" y="260"/>
      <point x="169" y="78"/>
      <point x="218" y="21" type="curve" smooth="yes"/>
      <point x="240" y="-3"/>
      <point x="287" y="-20"/>
      <point x="325" y="-20" type="curve"/>
      <point x="341" y="-20" type="line"/>
      <point x="341" y="19"/>
      <point x="298" y="53"/>
      <point x="275" y="87" type="curve" smooth="yes"/>
      <point x="203" y="196"/>
      <point x="163" y="342"/>
      <point x="143" y="484" type="curve" smooth="yes"/>
      <point x="138" y="513"/>
      <point x="108" y="543"/>
      <point x="59" y="550" type="curve"/>
    </contour>
    <contour>
      <point x="459" y="550" type="line"/>
      <point x="438" y="343"/>
      <point x="364" y="176"/>
      <point x="271" y="65" type="curve" smooth="yes"/>
      <point x="257" y="48"/>
      <point x="288" y="-20"/>
      <point x="325" y="-20" type="curve"/>
      <point x="341" y="-20" type="line"/>
      <point x="439" y="111"/>
      <point x="552" y="346"/>
      <point x="552" y="487" type="curve" smooth="yes"/>
      <point x="552" y="516"/>
      <point x="512" y="545"/>
      <point x="474" y="550" type="curve"/>
    </contour>
  </outline>
</glyph>
<glyph name="w" format="1">
  <advance width="600"/>
  <unicode hex="0077"/>
  <outline>
    <contour>
      <point x="29" y="550" type="line"/>
      <point x="29" y="276"/>
      <point x="82" y="66"/>
      <point x="125" y="23" type="curve" smooth="yes"/>
      <point x="156" y="-8"/>
      <point x="171" y="-16"/>
      <point x="187" y="-16" type="curve"/>
      <point x="206" y="-16" type="line"/>
      <point x="186" y="62" type="line"/>
      <point x="146" y="139"/>
      <point x="116" y="259"/>
      <point x="116" y="494" type="curve" smooth="yes"/>
      <point x="116" y="520"/>
      <point x="80" y="545"/>
      <point x="40" y="550" type="curve"/>
    </contour>
    <contour>
      <point x="263" y="409" type="line"/>
      <point x="251" y="256"/>
      <point x="218" y="144"/>
      <point x="161" y="69" type="curve"/>
      <point x="187" y="-16" type="line"/>
      <point x="206" y="-16" type="line"/>
      <point x="257" y="74"/>
      <point x="289" y="159"/>
      <point x="305" y="242" type="curve"/>
      <point x="333" y="364" type="line"/>
      <point x="274" y="409" type="line"/>
    </contour>
    <contour>
      <point x="263" y="409" type="line"/>
      <point x="299" y="242" type="line"/>
      <point x="327" y="67"/>
      <point x="379" y="-16"/>
      <point x="462" y="-16" type="curve"/>
      <point x="481" y="-16" type="line"/>
      <point x="446" y="53" type="line"/>
      <point x="392" y="103"/>
      <point x="367" y="173"/>
      <point x="333" y="364" type="curve" smooth="yes"/>
      <point x="329" y="385"/>
      <point x="301" y="405"/>
      <point x="274" y="409" type="curve"/>
    </contour>
    <contour>
      <point x="484" y="551" type="line"/>
      <point x="484" y="278"/>
      <point x="470" y="194"/>
      <point x="413" y="57" type="curve"/>
      <point x="462" y="-16" type="line"/>
      <point x="481" y="-16" type="line"/>
      <point x="536" y="101"/>
      <point x="572" y="294"/>
      <point x="572" y="480" type="curve" smooth="yes"/>
      <point x="572" y="512"/>
      <point x="534" y="546"/>
      <point x="495" y="551" type="curve"/>
    </contour>
  </outline>
</glyph>
<glyph name="y" format="1">
  <advance width="600"/>
  <unicode hex="0079"/>
  <outline>
    <contour>
      <point x="45" y="550" type="line"/>
      <point x="79" y="264"/>
      <point x="184" y="96"/>
      <point x="233" y="42" type="curve" smooth="yes"/>
      <point x="253" y="21"/>
      <point x="297" y="4"/>
      <point x="333" y="4" type="curve"/>
      <point x="348" y="4" type="line"/>
      <point x="348" y="42"/>
      <point x="307" y="76"/>
      <point x="285" y="109" type="curve" smooth="yes"/>
      <point x="211" y="215"/>
      <point x="157" y="349"/>
      <point x="137" y="488" type="curve" smooth="yes"/>
      <point x="133" y="515"/>
      <point x="107" y="544"/>
      <point x="59" y="550" type="curve"/>
    </contour>
    <contour>
      <point x="465" y="550" type="line"/>
      <point x="435" y="239"/>
      <point x="328" y="0"/>
      <point x="176" y="-180" type="curve" smooth="yes"/>
      <point x="164" y="-194"/>
      <point x="178" y="-241"/>
      <point x="214" y="-241" type="curve"/>
      <point x="230" y="-241" type="line"/>
      <point x="246" y="-241"/>
      <point x="272" y="-215"/>
      <point x="279" y="-203" type="curve" smooth="yes"/>
      <point x="412" y="-21"/>
      <point x="551" y="306"/>
      <point x="551" y="492" type="curve" smooth="yes"/>
      <point x="551" y="519"/>
      <point x="515" y="545"/>
      <point x="479" y="550" type="curve"/>
    </contour>
    <contour>
      <point x="134" y="-112" type="curve"/>
      <point x="115" y="-112" type="line"/>
      <point x="115" y="-139"/>
      <point x="122" y="-181"/>
      <point x="142" y="-204" type="curve" smooth="yes"/>
      <point x="152" y="-215"/>
      <point x="179" y="-241"/>
      <point x="214" y="-241" type="curve"/>
      <point x="239" y="-173" type="line"/>
      <point x="201" y="-155"/>
      <point x="174" y="-139"/>
    </contour>
  </outline>
</glyph>
<glyph name="braceleft" format="1">
  <advance width="600"/>
  <unicode hex="007B"/>
  <outline>
    <contour>
      <point x="340" y="226" type="curve" smooth="yes"/>
      <point x="334" y="296"/>
      <point x="208" y="327"/>
      <point x="141" y="327" type="curve"/>
      <point x="103" y="264" type="line"/>
      <point x="167" y="264"/>
      <point x="198" y="263"/>
      <point x="282" y="219" type="curve"/>
      <point x="252" y="263" type="line"/>
      <point x="270" y="86"/>
      <point x="241" y="20"/>
      <point x="253" y="-31" type="curve" smooth="yes"/>
      <point x="258" y="-49"/>
      <point x="290" y="-104"/>
      <point x="328" y="-115" type="curve" smooth="yes"/>
      <point x="364" y="-127"/>
      <point x="474" y="-144"/>
      <point x="565" y="-144" type="curve"/>
      <point x="565" y="-133" type="line"/>
      <point x="557" y="-94"/>
      <point x="519" y="-55"/>
      <point x="493" y="-55" type="curve" smooth="yes"/>
      <point x="470" y="-55"/>
      <point x="390" y="-49"/>
      <point x="311" y="-21" type="curve"/>
      <point x="339" y="-49" type="line"/>
      <point x="330" y="57"/>
      <point x="348" y="128"/>
    </contour>
    <contour>
      <point x="39" y="351" type="curve"/>
      <point x="39" y="338" type="line"/>
      <point x="39" y="312"/>
      <point x="77" y="264"/>
      <point x="103" y="264" type="curve" smooth="yes"/>
      <point x="125" y="264"/>
      <point x="176" y="269"/>
      <point x="211" y="275" type="curve"/>
      <point x="215" y="308" type="line"/>
      <point x="290" y="332"/>
      <point x="325" y="358"/>
      <point x="334" y="427" type="curve" smooth="yes"/>
      <point x="345" y="518"/>
      <point x="332" y="577"/>
      <point x="333" y="675" type="curve"/>
      <point x="302" y="644" type="line"/>
      <point x="405" y="679"/>
      <point x="502" y="679"/>
      <point x="545" y="679" type="curve"/>
      <point x="545" y="691" type="line"/>
      <point x="545" y="715"/>
      <point x="499" y="759"/>
      <point x="472" y="759" type="curve" smooth="yes"/>
      <point x="430" y="759"/>
      <point x="343" y="748"/>
      <point x="312" y="732" type="curve" smooth="yes"/>
      <point x="291" y="720"/>
      <point x="249" y="691"/>
      <point x="245" y="651" type="curve" smooth="yes"/>
      <point x="236" y="574"/>
      <point x="270" y="509"/>
      <point x="245" y="354" type="curve"/>
      <point x="274" y="394" type="line"/>
      <point x="197" y="354"/>
      <point x="147" y="351"/>
    </contour>
  </outline>
</glyph>
<glyph name="g.ver01" format="1">
  <advance width="600"/>
  <outline>
    <contour>
      <point x="505" y="541" type="curve"/>
      <point x="452" y="560"/>
      <point x="400" y="568"/>
      <point x="337" y="568" type="curve" smooth="yes"/>
      <point x="181" y="568"/>
      <point x="69" y="489"/>
      <point x="69" y="362" type="curve" smooth="yes"/>
      <point x="69" y="275"/>
      <point x="142" y="171"/>
      <point x="298" y="171" type="curve" smooth="yes"/>
      <point x="412" y="171"/>
      <point x="476" y="242"/>
      <point x="476" y="322" type="curve" smooth="yes"/>
      <point x="476" y="423"/>
      <point x="408" y="480"/>
      <point x="357" y="510" type="curve"/>
      <point x="318" y="498" type="line"/>
      <point x="362" y="472"/>
      <point x="396" y="424"/>
      <point x="396" y="371" type="curve" smooth="yes"/>
      <point x="396" y="300"/>
      <point x="352" y="255"/>
      <point x="251" y="251" type="curve" smooth="yes"/>
      <point x="210" y="250"/>
      <point x="168" y="265"/>
      <point x="129" y="298" type="curve"/>
      <point x="141" y="257" type="line"/>
      <point x="178" y="253" type="line"/>
      <point x="156" y="280"/>
      <point x="146" y="294"/>
      <point x="146" y="324" type="curve" smooth="yes"/>
      <point x="146" y="438"/>
      <point x="235" y="480"/>
      <point x="360" y="480" type="curve" smooth="yes"/>
      <point x="432" y="480"/>
      <point x="497" y="468"/>
      <point x="571" y="434" type="curve"/>
      <point x="578" y="446" type="line"/>
      <point x="560" y="483"/>
      <point x="539" y="513"/>
    </contour>
    <contour>
      <point x="185" y="212" type="line"/>
      <point x="75" y="194"/>
      <point x="32" y="138"/>
      <point x="32" y="75" type="curve" smooth="yes"/>
      <point x="32" y="23"/>
      <point x="72" y="-31"/>
      <point x="138" y="-31" type="curve" smooth="yes"/>
      <point x="226" y="-31"/>
      <point x="313" y="-19"/>
      <point x="404" y="-19" type="curve" smooth="yes"/>
      <point x="445" y="-19"/>
      <point x="477" y="-27"/>
      <point x="508" y="-44" type="curve"/>
      <point x="474" y="-5" type="line"/>
      <point x="474" y="-70"/>
      <point x="455" y="-110"/>
      <point x="403" y="-158" type="curve"/>
      <point x="413" y="-176" type="line"/>
      <point x="490" y="-161"/>
      <point x="566" y="-99"/>
      <point x="566" y="-52" type="curve" smooth="yes"/>
      <point x="566" y="-6"/>
      <point x="535" y="34"/>
      <point x="521" y="47" type="curve" smooth="yes"/>
      <point x="503" y="66"/>
      <point x="477" y="74"/>
      <point x="390" y="74" type="curve" smooth="yes"/>
      <point x="257" y="74"/>
      <point x="194" y="56"/>
      <point x="111" y="60" type="curve"/>
      <point x="162" y="36" type="line"/>
      <point x="139" y="56"/>
      <point x="134" y="69"/>
      <point x="134" y="95" type="curve" smooth="yes"/>
      <point x="134" y="133"/>
      <point x="165" y="175"/>
      <point x="207" y="194" type="curve"/>
    </contour>
  </outline>
</glyph>
